inDegrees=no
num_controls=7
num_derivatives=13
num_iterations=241
num_multipliers=7
num_parameters=0
num_slacks=7
num_states=26
objective=5.101277
objective_accelerations=0.406796
objective_balance=0.099033
objective_effort=0.329140
objective_height=4.225185
objective_ligament=0.041123
solver_duration=2927.273167
status=Solve_Succeeded
success=true
DataType=double
version=3
OpenSimVersion=4.4-2022-07-23-0e9fedc
endheader
time	/jointset/ground_pelvis/pelvis_tilt/value	/jointset/ground_pelvis/pelvis_tx/value	/jointset/ground_pelvis/pelvis_ty/value	/jointset/hip_l/hip_flexion_l/value	/jointset/hip_l/hip_adduction_l/value	/jointset/hip_l/hip_rotation_l/value	/jointset/back/lumbar_extension/value	/jointset/patellofemoral_l/patellar_flexion_l/value	/jointset/knee_l/knee_flexion_l/value	/jointset/knee_l/knee_adduction_l/value	/jointset/knee_l/knee_rotation_l/value	/jointset/ankle_l/ankle_angle_l/value	/jointset/subtalar_l/subtalar_angle_l/value	/jointset/ground_pelvis/pelvis_tilt/speed	/jointset/ground_pelvis/pelvis_tx/speed	/jointset/ground_pelvis/pelvis_ty/speed	/jointset/hip_l/hip_flexion_l/speed	/jointset/hip_l/hip_adduction_l/speed	/jointset/hip_l/hip_rotation_l/speed	/jointset/back/lumbar_extension/speed	/jointset/patellofemoral_l/patellar_flexion_l/speed	/jointset/knee_l/knee_flexion_l/speed	/jointset/knee_l/knee_adduction_l/speed	/jointset/knee_l/knee_rotation_l/speed	/jointset/ankle_l/ankle_angle_l/speed	/jointset/subtalar_l/subtalar_angle_l/speed	/forceset/tau_hip_flexion_l	/forceset/tau_hip_adduction_l	/forceset/tau_hip_rotation_l	/forceset/tau_knee_flexion_l	/forceset/tau_ankle_angle_l	/forceset/tau_subtalar_angle_l	/forceset/tau_lumbar_extension	lambda_cid13_p0	lambda_cid13_p1	lambda_cid13_p2	lambda_cid13_p3	lambda_cid13_p4	lambda_cid13_p5	lambda_cid14_p0	/jointset/ground_pelvis/pelvis_tilt/accel	/jointset/ground_pelvis/pelvis_tx/accel	/jointset/ground_pelvis/pelvis_ty/accel	/jointset/hip_l/hip_flexion_l/accel	/jointset/hip_l/hip_adduction_l/accel	/jointset/hip_l/hip_rotation_l/accel	/jointset/back/lumbar_extension/accel	/jointset/patellofemoral_l/patellar_flexion_l/accel	/jointset/knee_l/knee_flexion_l/accel	/jointset/knee_l/knee_adduction_l/accel	/jointset/knee_l/knee_rotation_l/accel	/jointset/ankle_l/ankle_angle_l/accel	/jointset/subtalar_l/subtalar_angle_l/accel	gamma_cid13_p0	gamma_cid13_p1	gamma_cid13_p2	gamma_cid13_p3	gamma_cid13_p4	gamma_cid13_p5	gamma_cid14_p0
1.5	-0.3405309862817031	-0.01329864122520597	0.8055710739647485	1.017118166111246	-0.3062616414096149	-0.06689199429381379	-0.3200811206429963	0.6146938066530848	0.6146938066530926	-0.1740482041357396	0.1745328240627183	0.1053263663901663	-0.03061924962425221	0.4514393349130724	0.1460254380229185	0.3334871065146841	-1.685291471772063	0.03867317353160336	-0.5507021528711764	0.5826370939169649	-1.554875892616266	-1.554875892616306	0.003080735093499831	-7.522882834885884e-06	-0.4134209323605148	-0.02509377697532141	-0.192084320193531	0.0270318511530737	-0.02092128065124666	-0.1959746405030061	0.06780775271421054	0.04581486048689399	0.1881192123454873	-16.87293954591839	-21.01171869267064	7.594805397566005	2.718961112037067	-613.5358461107264	-63.64013145745907	-32.3813028995026	0.3594601629762376	0.347925349536951	-0.2378273553337219	-1.041171593468539	0.4710734334514924	-0.3181502592392011	1.280982991917195	-0.9310094589777484	-0.9310094589777483	0.009517491807125987	-0.02723741567593754	-0.2146539050457081	0.4449253422775892	4.827531389118847e-08	1.014780894235663e-06	-3.100298581000556e-07	9.855612516908055e-08	1.103491658666989e-07	4.133516002512596e-07	1.318727033473635e-07
1.51	-0.3359989172750553	-0.0118211424161299	0.8088934163629613	1.000215041751935	-0.3058519463477568	-0.0724151114770423	-0.3141917987979926	0.5991006454953067	0.5991006454953096	-0.1740178780070423	0.1745328148026618	0.101181833452167	-0.03084861634404188	0.4549161532230006	0.1494544062386833	0.3309179740411942	-1.69509500169938	0.0432751535836023	-0.5538399406557966	0.5951439583342938	-1.563534635149366	-1.563534635149407	0.002978966104688912	2.473106122082679e-06	-0.4154210403491215	-0.02076800229737953	-0.1861430762161223	0.02590063699744771	-0.020875520797188	-0.1948444188717191	0.07028179486719091	0.04497084507211631	0.1832918238228997	-15.95605945964828	-20.87731930348498	7.655182623683973	2.471807422217189	-610.669765922497	-63.84928965654518	-33.1699536381732	0.333052924726218	0.3374169024590749	-0.2759429390394082	-0.9141754991510841	0.4560814019962539	-0.2992481960055126	1.223040654223097	-0.8000785109655775	-0.8000785109659868	-0.02069637665790408	0.01472620966585837	-0.1829818289880856	0.4280015920173635	4.402750160535176e-08	1.070042699045207e-06	-3.090366292498442e-07	1.060361635006821e-07	1.138058717427875e-07	4.338287195737086e-07	1.353523985750905e-07
1.52	-0.3314338280333635	-0.01030994705592361	0.8121881700873026	0.9832210357319925	-0.3053959672631942	-0.07796713756970332	-0.3081799078112993	0.5834275425400997	0.5834275425400978	-0.1739887040247197	0.1745328271231934	0.09701924091763772	-0.03103440570475916	0.4580433819219334	0.152764748248962	0.3279693717403914	-1.703467803898211	0.04792997807248753	-0.5564839347577004	0.6071509222549175	-1.570864252102047	-1.570864252102091	0.002850305818569928	-3.206765547151403e-06	-0.4170328516665256	-0.01637830516084263	-0.1802018322387139	0.02476942284182219	-0.02082976094313043	-0.193714197240432	0.0727558370201714	0.04412682965733918	0.1784644353003117	-15.04679376572875	-20.74382833868575	7.718265546372119	2.23386442635632	-607.9297852976546	-64.10510637762563	-33.9342121692717	0.2895422407771432	0.3242001084397181	-0.313721320796309	-0.7550260477714369	0.4816423208287524	-0.2193915226959517	1.181002892576168	-0.6651843428941147	-0.6651843428941168	0.004139232345512268	-0.03037258780117182	-0.1369945708051779	0.4577098339965907	3.919684037759846e-08	1.121091480828355e-06	-3.068976236372046e-07	1.131224110532782e-07	1.167278050070075e-07	4.524115326493633e-07	1.382214478966882e-07
1.53	-0.3268392235592446	-0.008766270727985134	0.8154515799174431	0.9661504710238418	-0.3048932442808825	-0.08354325568478017	-0.3020505564329469	0.5676878430785057	0.5676878430785042	-0.1739609648105661	0.1745328294791912	0.09284248424835922	-0.03117604210005814	0.460816162709964	0.1559472166662376	0.3246528960634875	-1.71039978861789	0.05261860833789663	-0.5586567403780555	0.6186264914440135	-1.57684748027882	-1.576847480278875	0.002691835163801248	1.49688930692485e-06	-0.418251702232164	-0.01194243932628314	-0.1741475596582906	0.02347646406448116	-0.02082953688040685	-0.1926844245151965	0.07541903852611331	0.0431857225160064	0.1735380541705872	-14.08041129188214	-20.57812031643828	7.776153732181481	1.968861087348703	-605.205490439131	-64.32908632220415	-34.67074440315701	0.2619491528768342	0.3117997794824884	-0.3495413564488914	-0.6254755082861472	0.462981123775972	-0.2036339660387271	1.116904636343281	-0.5306963904351917	-0.5306963904367294	-0.02652443971059208	0.01565554614007187	-0.1042983262233969	0.4373531364996612	3.374690214905878e-08	1.167663925645957e-06	-3.035412302144848e-07	1.197902559031809e-07	1.190815423711172e-07	4.68981645337799e-07	1.404416859430236e-07
1.54	-0.3222187306462332	-0.007191463801651694	0.8186800388577524	0.9490179483036504	-0.3043435334470408	-0.08913858363292725	-0.29580923522185	0.5518951504680708	0.5518951504680695	-0.173934947148025	0.1745328316125354	0.08865554546806832	-0.03127315420134873	0.463221069700427	0.1589908679279532	0.3209791937741253	-1.71585940630637	0.057327548378465	-0.5603259013717484	0.629544888803788	-1.581462881870243	-1.581462881870309	0.002505995496131245	-3.251295383990318e-06	-0.4190692738690114	-0.007473446359162317	-0.1680932870778679	0.02218350528714027	-0.0208293128176863	-0.1916546517899604	0.07808224003205541	0.04224461537467383	0.1686116730408621	-13.12197404641077	-20.4130244979021	7.836428204038296	1.715047919585811	-602.6116644584562	-64.60018080165223	-35.37630708863576	0.2159674812636435	0.2964366773276992	-0.3851666432879758	-0.4605526415317646	0.4857042758606034	-0.1186625973635341	1.069568526711862	-0.3916190258240824	-0.391619025824083	-0.001334570234753415	-0.03226295571016129	-0.05673878504700126	0.4643352605088552	2.833448112915268e-08	1.209580834040792e-06	-3.008370477816012e-07	1.255542649432323e-07	1.219323370161233e-07	4.837973358896239e-07	1.422979679096336e-07
1.55	-0.317576044922032	-0.005586954357808462	0.8218700138243314	0.9318382428430058	-0.303746683295577	-0.09474818604056756	-0.2894616437732572	0.5360632144226702	0.5360632144226676	-0.1739109100827841	0.1745328346435751	0.08446244659515986	-0.03132545358940692	0.4652510747337826	0.1618833246171417	0.3169596738514714	-1.719825508304412	0.06204195672744198	-0.5615104809929595	0.6398690747895688	-1.584686672568337	-1.584686672568363	0.002298738831153702	3.0152493317377e-06	-0.419481617842634	-0.002983784706911062	-0.1619300457457735	0.02073660073024109	-0.02087758222646228	-0.1907156967767728	0.08091087652693736	0.04120291242763703	0.163586030843796	-12.11459386981859	-20.21252833371467	7.890737390004344	1.446631146487563	-600.036016615359	-64.83366971789387	-36.0476625589687	0.18677084680311	0.2815223112994172	-0.4187380687274551	-0.3262073285281831	0.4641271211217695	-0.1055882093930939	0.9981947157310844	-0.2521398022130614	-0.2521398022070507	-0.03064067049869861	0.01703935496740628	-0.02313546958587031	0.4415147513407811	2.296528645832439e-08	1.24613375481809e-06	-2.98884325837007e-07	1.302768979414983e-07	1.253558280934667e-07	4.9659162702318e-07	1.437349091756906e-07
1.56	-0.3129150083810107	-0.003954345917756352	0.8250181149112891	0.9146265626924633	-0.3031027254592823	-0.1003670807573985	-0.2830139402485626	0.5202061643282063	0.5202061643282032	-0.1738889894753669	0.1745328939191406	0.08026729362930203	-0.03133280973419109	0.4668912330644012	0.1646106671697286	0.3126044178498846	-1.722254344285964	0.06674908534463966	-0.5621843632098981	0.6495673040241459	-1.586485691682871	-1.586485691682856	0.00208270393139848	7.997610245960614e-06	-0.4194800924588958	0.001515202295641077	-0.1557668044136792	0.01928969617334265	-0.02092585163523676	-0.1897767417635849	0.08373951302181987	0.04016120948060112	0.1585603886467293	-11.11532694327564	-20.01232390047868	7.94704932312774	1.190566421233178	-597.5929209013063	-65.11405929575132	-36.68180590092081	0.1379981407162261	0.2634138500073536	-0.4523138590745523	-0.1530994382336224	0.4842483295047436	-0.01652311650900785	0.9443771764711422	-0.1066647091121197	-0.1066647091121204	-0.003090217190288865	-0.03251979247046619	0.02603508642516185	0.4662003305690333	2.36351421197388e-08	1.270358302745035e-06	-3.161496726227919e-07	1.288956764642796e-07	1.373837162981848e-07	5.098290619929514e-07	1.471192207819874e-07
1.57	-0.3082395079978415	-0.002295318405250283	0.8281210496797696	0.8973981984218715	-0.3024118229780325	-0.1059900813343564	-0.276472522156592	0.5043381572105904	0.5043381572105884	-0.1738694297182701	0.1745329108764163	0.07607418023961991	-0.0312952210452692	0.46814065532948	0.1671641633278456	0.3079310209356516	-1.723155561648978	0.07142522665479856	-0.5623298013505946	0.6586039208611898	-1.58687113958417	-1.586871139584196	0.001827705750677899	-4.97049509683682e-06	-0.4190710951334348	0.006000514444486988	-0.1495236591265785	0.01767650830854109	-0.02103042952156728	-0.1889853622444911	0.08679960406225996	0.03902494458355412	0.1534714480593933	-10.0500816698838	-19.78229621594317	7.998255174161568	0.8987610754099018	-595.2433890012564	-65.36994781533265	-37.278494705616	0.1081900128701588	0.2467396374573947	-0.482545187222652	-0.01918450791470332	0.4582714545663801	-0.0004987431268279334	0.8664449110075004	0.03217275023455909	0.03217275022846167	-0.03675763743945293	0.0143719969289269	0.05906949428303435	0.4392365357514119	3.18538106964565e-08	1.279172384609039e-06	-3.574376053215501e-07	1.198846368927049e-07	1.601671009121213e-07	5.236204267579921e-07	1.529377453135838e-07
1.58	-0.3035535582433282	-0.0006116715034143405	0.8311757119631829	0.8801687116531335	-0.3016743641991222	-0.1116119252087764	-0.2698441097015137	0.4884736271301351	0.4884736271301358	-0.1738524305467649	0.1745328096159555	0.07188730431092774	-0.03121287125911705	0.4689811073332164	0.1695345450357034	0.3029499208364184	-1.72247884391517	0.0760603448767538	-0.561953022702365	0.6669661766456925	-1.585790284250536	-1.585790284250602	0.001570586812897062	-1.564594063540884e-05	-0.4182326002609151	0.01046742174169467	-0.1432805138394771	0.01606332044374106	-0.02113500740788581	-0.1881939827253984	0.08985969510270066	0.0378886796865088	0.1483825074720571	-8.990521389196713	-19.55263105473512	8.051070319002433	0.6092336049363432	-592.9937992766326	-65.67087398464567	-37.83750342315227	0.05620408844770706	0.2267909599555129	-0.513854496074581	0.1624875811306202	0.4760437118640113	0.08792024127622378	0.8095049659628633	0.1865959378746158	0.1865959378746163	-0.003514368602338186	-0.03206126050963415	0.1119345958369217	0.4625193602413902	3.867021108208237e-08	1.283223277398197e-06	-3.922766471148168e-07	1.114703737555024e-07	1.812520807970834e-07	5.344803736988533e-07	1.574370115746417e-07
1.59	-0.2988612422954175	0.001094721353437608	0.8341790869895807	0.8629538384020405	-0.3008908327521804	-0.1172273237513683	-0.2631356093162925	0.4726271678465603	0.472627167846562	-0.1738381183429858	0.1745325247174362	0.06771090652876562	-0.03108601730421004	0.4694105596456824	0.1717089768730582	0.2976781750619629	-1.720223927478016	0.08063332740291303	-0.5610388057281631	0.6746101001173106	-1.583249788264683	-1.583249788264726	0.00129064431547978	-4.092931802706363e-05	-0.4169752321266896	0.01489565151668818	-0.1369640572424499	0.01429153747802107	-0.0212951354082456	-0.1875592094402551	0.09309064067686175	0.03667019582933646	0.1432292073711543	-7.887243503324549	-19.29409040250335	8.098342071691164	0.321324460031257	-590.872496194548	-65.95080917357831	-38.35798806334331	0.0255909044188915	0.2075317432072676	-0.5408287804694462	0.297782014640199	0.4459384865484457	0.1065215396656717	0.7232659955778915	0.3255117068244131	0.3255117068279259	-0.04024325428972505	0.0124220267305639	0.1434096597065604	0.4316670646613055	4.358353320836945e-08	1.280809842157206e-06	-4.183636226792027e-07	1.038660214935194e-07	2.000320828355804e-07	5.413619678783283e-07	1.601458558971116e-07
